#tb 0: 1/25
#media_type 0: video
#codec_id 0: rawvideo
#dimensions 0: 416x240
#sar 0: 0/1
0,          0,          0,        1,   299520, 0xf611bfba
0,          1,          1,        1,   299520, 0x2418ffa8
0,          2,          2,        1,   299520, 0xf2ebee4f
0,          3,          3,        1,   299520, 0x90e4f2e9
0,          4,          4,        1,   299520, 0xe054eab4
0,          5,          5,        1,   299520, 0xe56adf8f
0,          6,          6,        1,   299520, 0x34b5157e
0,          7,          7,        1,   299520, 0xf978350c
0,          8,          8,        1,   299520, 0x2507d904
0,          9,          9,        1,   299520, 0x91dff40e
0,         10,         10,        1,   299520, 0xa9e4fb34
0,         11,         11,        1,   299520, 0x3cbb1c31
0,         12,         12,        1,   299520, 0x68a00ceb
0,         13,         13,        1,   299520, 0x2c101018
0,         14,         14,        1,   299520, 0x579ee541
0,         15,         15,        1,   299520, 0xa8c4bd08
0,         16,         16,        1,   299520, 0x22d2aa95
0,         17,         17,        1,   299520, 0x7a371421
0,         18,         18,        1,   299520, 0x097af580
0,         19,         19,        1,   299520, 0x5ee77843
0,         20,         20,        1,   299520, 0x196a60e0
0,         21,         21,        1,   299520, 0x8f227109
0,         22,         22,        1,   299520, 0xe50e750e
0,         23,         23,        1,   299520, 0xfa11f55c
0,         24,         24,        1,   299520, 0xab5af565
0,         25,         25,        1,   299520, 0x84b3c333
0,         26,         26,        1,   299520, 0x4a64b7a6
0,         27,         27,        1,   299520, 0x3d0fb61b
0,         28,         28,        1,   299520, 0x952e2064
0,         29,         29,        1,   299520, 0x460193b0
0,         30,         30,        1,   299520, 0x1d5c210e
0,         31,         31,        1,   299520, 0x8929dc71
0,         32,         32,        1,   299520, 0xb1dbd340
0,         33,         33,        1,   299520, 0xb2e2c267
0,         34,         34,        1,   299520, 0x4ce8e371
0,         35,         35,        1,   299520, 0x81b09c2c
0,         36,         36,        1,   299520, 0xd8ae9c74
0,         37,         37,        1,   299520, 0x605aad7e
0,         38,         38,        1,   299520, 0xd01f7603
0,         39,         39,        1,   299520, 0x22e9b141
